<svg t="1693496317389" class="icon" viewBox="0 0 1024 1024" version="1.1" xmlns="http://www.w3.org/2000/svg" p-id="1556" width="200" height="200"><path d="M50.2784 52.1216m240.9984 0l439.6032 0q240.9984 0 240.9984 240.9984l0 439.6032q0 240.9984-240.9984 240.9984l-439.6032 0q-240.9984 0-240.9984-240.9984l0-439.6032q0-240.9984 240.9984-240.9984Z" fill="#FEF6ED" p-id="1557"></path><path d="M812.0832 487.168l-77.4144-69.1712v-108.032a13.1584 13.1584 0 0 0-13.1584-13.0048H664.064a13.1584 13.1584 0 0 0-13.1584 13.1584V343.04l-124.5184-111.0016a32.768 32.768 0 0 0-43.7248 0L203.008 483.2256a28.0576 28.0576 0 0 0 18.7392 48.896h65.792v211.3024A50.3296 50.3296 0 0 0 337.92 793.6h337.92a50.3296 50.3296 0 0 0 50.3296-50.3296v-211.1488h68.6592a25.6 25.6 0 0 0 17.2544-44.9536z" fill="#FFEBD7" p-id="1558"></path><path d="M742.4 424.96l-7.8848-7.0656V309.9648a13.1584 13.1584 0 0 0-13.0048-13.0048H664.064a13.1584 13.1584 0 0 0-13.1584 13.1584V343.04l-124.5184-111.0016a32.768 32.768 0 0 0-43.7248 0L203.008 483.2256a28.0576 28.0576 0 0 0 18.7392 48.896h65.792v151.552a334.1312 334.1312 0 0 0 452.1984-242.944c1.0752-5.2224 1.9968-10.6496 2.6624-15.7696z" fill="#FEF1E2" p-id="1559"></path><path d="M287.5392 588.288A382.6176 382.6176 0 0 0 686.08 296.96h-22.016a13.1584 13.1584 0 0 0-13.1584 13.1584V343.04l-124.5184-111.0016a32.768 32.768 0 0 0-43.7248 0L203.008 483.2256a28.0576 28.0576 0 0 0 18.7392 48.896h65.792z" fill="#FEF6ED" p-id="1560"></path><path d="M577.1264 277.3504l-50.7392-45.312a32.768 32.768 0 0 0-43.7248 0L222.3616 465.92a380.0064 380.0064 0 0 0 354.7648-188.5696z" fill="#FEFAF5" p-id="1561"></path><path d="M599.3984 549.12a23.04 23.04 0 0 0 0-46.08h-39.3216l44.7488-43.6736a23.04 23.04 0 0 0-32.2048-32.9728l-61.44 60.2624-61.44-60.2624a23.04 23.04 0 1 0-32.256 32.9216l44.6976 43.7248h-39.68a23.04 23.04 0 1 0 0 46.08H487.936v36.9152H422.5024a23.04 23.04 0 0 0 0 46.08H487.936v64.9216a23.04 23.04 0 0 0 46.08 0v-64.9216h65.3824a23.04 23.04 0 0 0 0-46.08H534.016v-36.9152z" fill="#333333" p-id="1562"></path><path d="M831.1808 469.0944l-69.7344-62.3104V309.0432a36.1984 36.1984 0 0 0-36.1984-36.1472h-57.4464a36.1472 36.1472 0 0 0-32.9216 20.992l-89.3952-79.9232a55.7568 55.7568 0 0 0-74.496 0L191.3856 465.2032a51.2 51.2 0 0 0 33.8944 89.088h42.752V742.4a73.472 73.472 0 0 0 73.3696 73.3696h337.92a73.472 73.472 0 0 0 73.728-73.3696v-188.1088H798.72a48.7936 48.7936 0 0 0 32.512-85.1968z m-29.952 37.376a2.3552 2.3552 0 0 1-2.56 1.7408h-68.6592a23.04 23.04 0 0 0-23.04 23.04V742.4a27.2896 27.2896 0 0 1-27.2896 27.2896h-337.92a27.2896 27.2896 0 0 1-27.4432-27.2896v-211.1488a22.9888 22.9888 0 0 0-23.04-23.04H225.28a5.12 5.12 0 0 1-3.328-8.704L501.76 248.3712a9.5232 9.5232 0 0 1 6.5536-2.6112 9.9328 9.9328 0 0 1 6.5024 2.4576l124.5184 111.2064a23.04 23.04 0 0 0 38.4-17.152V318.976h37.632v98.1504a23.04 23.04 0 0 0 7.68 17.152l77.4656 69.1712a2.3552 2.3552 0 0 1 0.7168 3.0208z" fill="#333333" p-id="1563"></path></svg>